<svg width="150" height="48" viewBox="0 0 282 90" fill="none" xmlns="http://www.w3.org/2000/svg">
<path d="M66.05 44.9C66.05 42.3667 67.1833 40.2 69.45 38.4C71.7167 36.6 74.5 35.7 77.8 35.7C81.1333 35.7 83.6833 36.1167 85.45 36.95C87.2167 37.75 88.1 38.75 88.1 39.95C88.1 41.15 87.3667 41.9 85.9 42.2C84.6333 40.3 82.0833 39.35 78.25 39.35C75.9833 39.35 74.1333 39.8833 72.7 40.95C71.2667 41.9833 70.55 43.25 70.55 44.75C70.55 46.25 71.1333 47.4 72.3 48.2C73.4667 49 75.1667 49.7 77.4 50.3C79.6667 50.8667 81.4 51.3833 82.6 51.85C83.8333 52.3167 85.0667 52.9333 86.3 53.7C88.7 55.1667 89.9 57.3833 89.9 60.35C89.9 63.2833 88.7 65.7 86.3 67.6C83.9 69.4667 80.9 70.4 77.3 70.4C73.7 70.4 70.8833 69.9333 68.85 69C66.85 68.0333 65.85 66.9 65.85 65.6C65.85 64.2667 66.7 63.3833 68.4 62.95C69.6333 65.45 72.4167 66.7 76.75 66.7C79.5167 66.7 81.6667 66.15 83.2 65.05C84.7667 63.9167 85.55 62.4833 85.55 60.75C85.55 58.9833 84.7667 57.6333 83.2 56.7C81.6667 55.7667 79.25 54.9 75.95 54.1C72.6833 53.2667 70.2167 52.15 68.55 50.75C66.8833 49.35 66.05 47.4 66.05 44.9ZM95.5875 45.4H96.5375C97.6042 45.4 98.2542 45.9167 98.4875 46.95C100.521 54.95 102.771 61.4167 105.238 66.35H105.688C108.488 59.45 110.738 52.9833 112.438 46.95C112.738 45.9167 113.388 45.4 114.388 45.4H115.188C116.221 45.4 116.738 45.7667 116.738 46.5C116.738 46.7 116.688 46.9333 116.588 47.2C112.721 59.2667 108.521 70.1 103.988 79.7C103.721 80.2667 103.438 80.6667 103.138 80.9C102.871 81.1667 102.438 81.3 101.838 81.3H100.588C99.7875 81.3 99.3875 80.9167 99.3875 80.15C99.3875 79.9167 99.5708 79.4333 99.9375 78.7C102.404 73.9333 103.854 71.0167 104.288 69.95H104.188C103.588 69.85 103.204 69.7167 103.038 69.55C102.871 69.35 102.754 69.2333 102.688 69.2C102.621 69.1333 102.538 69.0167 102.438 68.85C102.338 68.65 102.271 68.5333 102.238 68.5C102.204 68.4333 102.121 68.2833 101.988 68.05C101.888 67.7833 101.821 67.6167 101.788 67.55C99.2208 62.4167 96.6875 55.6333 94.1875 47.2C94.0875 46.9333 94.0375 46.7 94.0375 46.5C94.0375 45.7667 94.5542 45.4 95.5875 45.4ZM124.068 45.35H124.418C125.684 45.35 126.318 45.9833 126.318 47.25V49.7C126.951 48.4333 127.951 47.3167 129.318 46.35C130.684 45.3833 132.251 44.9 134.018 44.9C136.718 44.9 138.918 45.7167 140.618 47.35C142.351 48.95 143.218 51.5 143.218 55V68.1C143.218 68.7667 143.068 69.25 142.768 69.55C142.468 69.85 141.984 70 141.318 70H140.918C139.684 70 139.068 69.3667 139.068 68.1V55.15C139.068 52.7167 138.551 50.9833 137.518 49.95C136.484 48.9167 134.984 48.4 133.018 48.4C131.051 48.4 129.451 49.2 128.218 50.8C126.984 52.4 126.368 54.5167 126.368 57.15V68.1C126.368 69.3667 125.718 70 124.418 70H124.068C123.401 70 122.918 69.85 122.618 69.55C122.318 69.25 122.168 68.7667 122.168 68.1V47.25C122.168 45.9833 122.801 45.35 124.068 45.35ZM152.4 47.75C153.633 46.7833 154.95 46.0667 156.35 45.6C157.75 45.1333 159.45 44.9 161.45 44.9C163.45 44.9 165.2 45.35 166.7 46.25C168.233 47.15 169 48.1167 169 49.15C169 50.4167 168.283 51.1333 166.85 51.3C166.516 50.5667 165.766 49.9 164.6 49.3C163.433 48.6667 162.05 48.35 160.45 48.35C158.216 48.35 156.366 49.15 154.9 50.75C153.433 52.3167 152.7 54.6167 152.7 57.65C152.7 60.6833 153.45 63 154.95 64.6C156.45 66.2 158.25 67 160.35 67C163.683 67 165.933 65.9167 167.1 63.75C167.733 63.75 168.266 63.95 168.7 64.35C169.133 64.7167 169.35 65.2 169.35 65.8C169.35 66.9667 168.55 68.0333 166.95 69C165.35 69.9333 163.516 70.4 161.45 70.4C159.416 70.4 157.683 70.1667 156.25 69.7C154.85 69.2 153.55 68.4667 152.35 67.5C151.15 66.5 150.2 65.1667 149.5 63.5C148.8 61.8333 148.45 59.9 148.45 57.7C148.45 55.4667 148.8 53.5 149.5 51.8C150.233 50.0667 151.2 48.7167 152.4 47.75ZM178.055 36.05H178.505C179.839 36.05 180.505 36.7 180.505 38V68.1C180.505 69.3667 179.839 70 178.505 70H178.055C176.789 70 176.155 69.3667 176.155 68.1V38C176.155 36.7 176.789 36.05 178.055 36.05ZM193.259 38.7H193.609C194.875 38.7 195.509 39.3167 195.509 40.55V45.5H202.409C203.709 45.5 204.359 46.0667 204.359 47.2C204.359 48.3333 203.709 48.9 202.409 48.9H195.509V61.5C195.509 63.6 195.909 65.0833 196.709 65.95C197.542 66.7833 198.742 67.2 200.309 67.2C201.909 67.2 203.092 66.8167 203.859 66.05C204.692 66.3167 205.109 66.85 205.109 67.65C205.109 68.45 204.559 69.1167 203.459 69.65C202.359 70.15 201.042 70.4 199.509 70.4C194.075 70.4 191.359 67.4333 191.359 61.5V48.9H188.909C188.175 48.9 187.642 48.7833 187.309 48.55C186.975 48.3167 186.809 47.8667 186.809 47.2C186.809 46.0667 187.509 45.5 188.909 45.5H191.359V40.55C191.359 39.3167 191.992 38.7 193.259 38.7ZM212.327 59.75H212.077C210.977 59.75 210.427 59.1667 210.427 58L209.427 38.45C209.427 36.85 210.21 36.05 211.777 36.05H212.577C214.144 36.05 214.927 36.85 214.927 38.45L213.977 58C213.944 59.1667 213.394 59.75 212.327 59.75ZM208.877 67.15C208.877 66.1833 209.194 65.4 209.827 64.8C210.46 64.2 211.227 63.9 212.127 63.9C213.06 63.9 213.844 64.2 214.477 64.8C215.11 65.4 215.427 66.1833 215.427 67.15C215.427 68.1167 215.11 68.9 214.477 69.5C213.844 70.1 213.06 70.4 212.127 70.4C211.227 70.4 210.46 70.1 209.827 69.5C209.194 68.9 208.877 68.1167 208.877 67.15Z" fill="#D9D9D9"/>
<path d="M30.8125 80.5C41.8237 80.5 50.75 71.8815 50.75 61.25C50.75 50.6185 41.8237 42 30.8125 42C19.8013 42 10.875 50.6185 10.875 61.25C10.875 71.8815 19.8013 80.5 30.8125 80.5Z" fill="#AB58FE"/>
<rect x="39.875" y="14" width="10.875" height="45.5" fill="#AB58FE"/>
<rect x="39.875" y="3.5" width="39.875" height="21" rx="2" fill="#AB58FE"/>
</svg>
